<?xml version="1.0" encoding="UTF-8"?>
<svg id="Livello_1" data-name="Livello 1" xmlns="http://www.w3.org/2000/svg" viewBox="0 0 755.72 181.22">
  <path d="m0,2.76h22.59v175.7H0V2.76Z"/>
  <path d="m98.39,2.76h65.26c29.37,0,49.95,19.33,49.95,45.93,0,15.81-8.78,30.62-22.34,37.4v1.51c15.56,7.78,25.35,24.35,25.35,42.42,0,27.36-22.84,48.44-53.46,48.44h-64.76V2.76Zm92.12,47.94c0-15.81-12.3-27.61-28.61-27.61h-40.91v55.22h40.91c16.31,0,28.61-11.55,28.61-27.61Zm3.01,77.81c0-16.06-13.55-29.62-29.62-29.62h-42.92v59.24h42.92c16.06,0,29.62-13.55,29.62-29.62Z"/>
  <path d="m235.42,114.46V2.76h22.59v111.69c0,27.61,17.57,45.93,44.18,45.93s44.18-18.32,44.18-45.93V2.76h22.59v111.69c0,39.66-26.86,66.77-66.77,66.77s-66.77-27.11-66.77-66.77Z"/>
  <path d="m391.04,90.86c0-52.21,35.89-90.86,84.84-90.86,38.65,0,69.53,23.09,75.8,56.98h-22.84c-7.78-23.34-26.35-36.14-52.96-36.14-36.14,0-61.75,28.87-61.75,69.78s25.6,69.78,61.75,69.78c27.86,0,45.68-12.05,52.96-36.14h23.09c-6.27,34.39-35.89,56.98-76.05,56.98-48.94,0-84.84-38.4-84.84-90.36Z"/>
  <path d="m681.18,99.9h-86.09v78.56h-22.59V2.76h22.59v76.55h86.09V2.76h22.59v175.7h-22.59v-78.56Z"/>
  <path d="m733.14,2.76h22.59v175.7h-22.59V2.76Z"/>
</svg>