<?xml version="1.0" encoding="UTF-8"?>
<svg id="Livello_1" data-name="Livello 1" xmlns="http://www.w3.org/2000/svg" viewBox="0 0 660.51 126.5">
  <path d="m0,1.93h15.77v122.64H0V1.93Z"/>
  <path d="m34.16,1.93h15.77v108.45h60.97v14.19H34.16V1.93Z"/>
  <path d="m150.32,63.25c0-37.67,24.7-63.25,60.79-63.25,26.98,0,48.01,15.77,52.04,39.07h-16.82c-3.68-14.89-17.7-24.53-35.04-24.53-26.98,0-44.85,19.45-44.85,48.71s17.17,48.71,41.87,48.71c23.3,0,38.54-14.19,38.9-36.27h-33.29v-14.19h49.23v63.07h-12.96l-1.23-17.17h-1.05c-7.88,11.56-23.83,19.1-40.65,19.1-33.46,0-56.94-26.28-56.94-63.25Z"/>
  <path d="m281.38,1.93h77.09v14.19h-61.32v39.07h52.74v14.37h-52.74v40.82h61.32v14.19h-77.09V1.93Z"/>
  <path d="m364.77,89.88h16.64c2.28,14.19,12.61,22.08,26.63,22.08s25.05-8.23,25.05-19.45-6.48-16.82-21.02-21.73l-14.89-4.91c-18.92-6.13-28.21-16.82-28.21-32.94,0-18.57,16.82-32.94,38.02-32.94s38.89,14.54,40.12,33.11h-16.82c-1.4-10.86-11.04-18.57-23.3-18.57s-21.9,8.23-21.9,18.4c0,9.29,5.78,14.54,20.15,19.1l12.79,4.2c21.02,6.66,31.19,18.4,31.19,36.27,0,19.45-17.7,33.99-41.17,33.99s-41.7-14.37-43.27-36.62Z"/>
  <path d="m487.94,16.12h-35.57V1.93h87.07v14.19h-35.57v108.45h-15.94V16.12Z"/>
  <path d="m535.94,63.25c0-36.62,26.28-63.25,62.37-63.25s62.2,26.63,62.2,63.25-26.28,63.25-62.2,63.25-62.37-26.63-62.37-63.25Zm108.45,0c0-28.56-19.1-48.71-46.08-48.71s-46.25,20.15-46.25,48.71,19.27,48.71,46.25,48.71,46.08-20.15,46.08-48.71Z"/>
</svg>