<?xml version="1.0" encoding="UTF-8"?>
<svg id="Livello_1" data-name="Livello 1" xmlns="http://www.w3.org/2000/svg" viewBox="0 0 757.13 164.5">
  <path d="m0,82.25C0,33.27,32.13,0,79.06,0c35.09,0,62.43,20.51,67.67,50.81h-21.87c-4.78-19.37-23.01-31.9-45.57-31.9-35.09,0-58.33,25.29-58.33,63.34s22.33,63.34,54.46,63.34c30.3,0,50.13-18.46,50.58-47.16h-43.29v-18.46h64.02v82.02h-16.86l-1.59-22.33h-1.37c-10.25,15.04-30.99,24.83-52.86,24.83C30.53,164.5,0,130.33,0,82.25Z"/>
  <path d="m167.47,2.51h20.51v141.04h79.29v18.46h-99.8V2.51Z"/>
  <path d="m282.53,2.51h20.51v159.49h-20.51V2.51Z"/>
  <path d="m371.84,2.51h20.51v159.49h-20.51V2.51Z"/>
  <path d="m415.59,2.51h20.96l83.62,123.95h1.37V2.51h19.82v159.49h-20.96l-83.62-123.95h-1.37v123.95h-19.82V2.51Z"/>
  <path d="m568.02,2.51h20.51v159.49h-20.51V2.51Z"/>
  <path d="m608.35,147.19l80.43-124.86v-1.37h-77.01V2.51h102.99v14.81l-80.43,124.86v1.37h82.48v18.46h-108.45v-14.81Z"/>
  <path d="m736.62,2.51h20.51v159.49h-20.51V2.51Z"/>
</svg>