<?xml version="1.0" encoding="UTF-8"?>
<svg id="Livello_2" data-name="Livello 2" xmlns="http://www.w3.org/2000/svg" viewBox="0 0 488.87 547.39">
  <path d="m10.51,534.62c-7.01-8.52-10.51-19.78-10.51-33.79V46.24c0-14.01,3.5-25.22,10.51-33.63C17.51,4.2,26.94,0,38.8,0c6.47,0,12.61,1.13,18.43,3.39s11.96,5.23,18.43,8.89l377,218.25c13.58,7.76,23.01,14.71,28.29,20.85,5.28,6.14,7.92,13.53,7.92,22.15s-2.64,16-7.92,22.15c-5.28,6.14-14.71,13.21-28.29,21.18l-377,217.92c-6.47,3.88-12.61,6.95-18.43,9.21-5.82,2.26-11.96,3.39-18.43,3.39-11.86,0-21.29-4.26-28.29-12.77Z"/>
</svg>