<?xml version="1.0" encoding="UTF-8"?>
<svg id="Livello_1" data-name="Livello 1" xmlns="http://www.w3.org/2000/svg" viewBox="0 0 711.59 115.67">
  <path d="m0,1.76h14.42v99.17h55.75v12.98H0V1.76Z"/>
  <path d="m67.76,57.83C67.76,24.35,91.79,0,124.79,0s56.87,24.35,56.87,57.83-24.03,57.83-56.87,57.83-57.03-24.35-57.03-57.83Zm99.17,0c0-26.11-17.46-44.54-42.13-44.54s-42.29,18.42-42.29,44.54,17.62,44.54,42.29,44.54,42.13-18.42,42.13-44.54Z"/>
  <path d="m218.66,82.18h15.22c2.08,12.98,11.53,20.19,24.35,20.19s22.91-7.53,22.91-17.78-5.93-15.38-19.22-19.86l-13.62-4.49c-17.3-5.61-25.79-15.38-25.79-30.12,0-16.98,15.38-30.12,34.76-30.12s35.56,13.3,36.69,30.28h-15.38c-1.28-9.93-10.09-16.98-21.31-16.98s-20.03,7.53-20.03,16.82c0,8.49,5.29,13.3,18.42,17.46l11.69,3.84c19.22,6.09,28.52,16.82,28.52,33.16,0,17.78-16.18,31.08-37.65,31.08s-38.13-13.14-39.57-33.48Z"/>
  <path d="m307.89,1.76h41.01c20.83,0,35.4,14.1,35.4,33.8s-14.58,33.8-35.4,33.8h-26.59v44.54h-14.42V1.76Zm39.73,54.63c13.14,0,21.95-8.33,21.95-20.83s-8.81-20.83-21.95-20.83h-25.31v41.65h25.31Z"/>
  <path d="m414.42,1.76h19.54l39.25,112.14h-15.22l-10.41-30.12h-46.78l-10.57,30.12h-15.06L414.42,1.76Zm28.68,69.05l-18.42-53.19h-.96l-18.42,53.19h37.81Z"/>
  <path d="m478.98,103.49l56.55-87.79v-.96h-54.15V1.76h72.41v10.41l-56.55,87.79v.96h57.99v12.98h-76.26v-10.41Z"/>
  <path d="m569.17,1.76h14.42v112.14h-14.42V1.76Z"/>
  <path d="m597.68,57.83c0-33.48,24.03-57.83,57.03-57.83s56.87,24.35,56.87,57.83-24.03,57.83-56.87,57.83-57.03-24.35-57.03-57.83Zm99.17,0c0-26.11-17.46-44.54-42.13-44.54s-42.29,18.42-42.29,44.54,17.62,44.54,42.29,44.54,42.13-18.42,42.13-44.54Z"/>
</svg>