<?xml version="1.0" encoding="UTF-8"?>
<svg id="Livello_1" data-name="Livello 1" xmlns="http://www.w3.org/2000/svg" viewBox="0 0 624.75 164.5">
  <path d="m0,2.51h20.51v159.49H0V2.51Z"/>
  <path d="m124.63,20.96h-46.25V2.51h113.24v18.46h-46.25v141.04h-20.73V20.96Z"/>
  <path d="m230.35,2.51h27.8l55.82,159.49h-21.64l-14.81-42.83h-66.53l-15.04,42.83h-21.42L230.35,2.51Zm40.78,98.2l-26.2-75.64h-1.37l-26.2,75.64h53.77Z"/>
  <path d="m316.02,82.25c0-48.99,32.13-82.25,79.06-82.25,35.09,0,62.43,20.51,67.67,50.81h-21.87c-4.78-19.37-23.01-31.9-45.57-31.9-35.09,0-58.33,25.29-58.33,63.34s22.33,63.34,54.45,63.34c30.3,0,50.13-18.46,50.58-47.16h-43.29v-18.46h64.02v82.02h-16.86l-1.59-22.33h-1.37c-10.25,15.04-30.99,24.83-52.86,24.83-43.52,0-74.05-34.18-74.05-82.25Z"/>
  <path d="m489.19,2.51h20.51v141.04h79.29v18.46h-99.8V2.51Z"/>
  <path d="m604.25,2.51h20.51v159.49h-20.51V2.51Z"/>
</svg>